<?xml version="1.0" encoding="UTF-8"?>
<svg xmlns="http://www.w3.org/2000/svg" viewBox="-143 -18 690 690">
<path d="M0 0 C6.78459737 4.13075826 9.9878381 10.16439559 12.1875 17.625 C15.25264579 32.11146285 12.79285889 46.68444388 10.3125 61.0625 C10.08699463 62.43075928 10.08699463 62.43075928 9.85693359 63.82666016 C4.96433011 92.82155954 -6.74160831 120.08603348 -17.36135864 147.3494873 C-27.84084633 174.25313697 -38.2074634 201.14229302 -45.6875 229.0625 C-43.60549773 228.334854 -41.52360028 227.60691203 -39.44189453 226.87841797 C-37.62438393 226.24312994 -35.80633586 225.60937778 -33.98779297 224.97705078 C-29.75860782 223.50350046 -25.53740676 222.0200978 -21.34765625 220.4375 C-3.38681064 213.70839753 15.30970093 210.29738624 34.3125 208.0625 C35.43269531 207.92972656 36.55289062 207.79695312 37.70703125 207.66015625 C83.29701364 203.29833618 133.22598285 212.3605205 169.3125 242.0625 C178.92100533 250.08374396 187.06761592 258.86283967 194.3125 269.0625 C194.91336426 269.90699707 194.91336426 269.90699707 195.52636719 270.76855469 C209.89679948 291.29943611 218.28790813 315.43983935 222.3125 340.0625 C222.48982666 341.13145508 222.66715332 342.20041016 222.84985352 343.30175781 C224.39826802 353.58593139 224.6721007 363.67994305 224.625 374.0625 C224.62284485 374.91966614 224.6206897 375.77683228 224.61846924 376.65997314 C224.56351368 390.31531712 223.99023477 403.63469943 221.3125 417.0625 C221.03043701 418.49215088 221.03043701 418.49215088 220.74267578 419.95068359 C215.32228425 446.43168946 206.35382279 471.89205767 194.3125 496.0625 C193.68625732 497.3314209 193.68625732 497.3314209 193.04736328 498.62597656 C180.27295548 524.31667373 163.80468432 548.69732449 144.359375 569.83203125 C142.46578813 571.89546274 140.63423836 573.99824581 138.8125 576.125 C132.48087 583.3569994 125.67210778 589.7674621 118.1640625 595.765625 C116.30067709 597.26654366 114.46059357 598.79698824 112.6484375 600.359375 C71.22626442 636.06412138 17.45686178 662.48943197 -36.6875 671.0625 C-37.7811084 671.23990723 -38.8747168 671.41731445 -40.00146484 671.60009766 C-43.93225371 672.09320364 -47.80663479 672.25855156 -51.76171875 672.30078125 C-52.5192897 672.3105751 -53.27686066 672.32036896 -54.05738831 672.33045959 C-85.54459493 672.65392452 -85.54459493 672.65392452 -100.6875 668.0625 C-101.77417969 667.74901611 -101.77417969 667.74901611 -102.8828125 667.42919922 C-129.45160527 659.59586478 -152.97115289 642.28310089 -166.6875 618.0625 C-171.87671595 608.22345759 -175.38277266 597.94168688 -177.6875 587.0625 C-177.95240234 585.81786987 -177.95240234 585.81786987 -178.22265625 584.5480957 C-179.92961702 575.63151178 -180.08694293 566.79163878 -180.0625 557.75 C-180.06162384 556.95703522 -180.06074768 556.16407043 -180.05984497 555.34707642 C-179.84858992 497.1919971 -149.4389747 444.94036568 -109.19042969 404.56054688 C-100.01584683 395.5615831 -89.64476802 387.02589427 -77.6875 382.0625 C-77.0275 382.3925 -76.3675 382.7225 -75.6875 383.0625 C-79.05982846 389.10107564 -82.48740077 394.93307308 -86.6875 400.4375 C-104.54964315 424.6666884 -112.28015844 459.49135234 -108.21484375 489.12109375 C-105.17759037 504.27098635 -96.68673928 517.32684792 -83.89501953 525.93457031 C-65.6540203 537.55150935 -44.31161328 540.06652875 -23.3125 535.5 C-14.64975199 533.42870304 -6.64173448 530.0174606 1.3125 526.0625 C2.32054687 525.56621094 3.32859375 525.06992187 4.3671875 524.55859375 C20.58952585 516.12573515 35.37773522 503.67785097 46.3125 489.0625 C46.94027344 488.29550781 47.56804687 487.52851563 48.21484375 486.73828125 C60.26025474 471.44134827 68.25389254 452.7389409 73.3125 434.0625 C73.50166992 433.37172363 73.69083984 432.68094727 73.88574219 431.96923828 C79.20690322 411.5714543 78.17841057 388.52635324 68.0703125 369.80859375 C60.61278743 358.15828236 50.19260784 349.88215326 37.3125 345.0625 C36.28253906 344.66804688 35.25257813 344.27359375 34.19140625 343.8671875 C-4.74655147 331.22671541 -48.74531845 351.4947897 -84.15136719 366.56005859 C-141.72475606 391.02199143 -141.72475606 391.02199143 -168.6875 392.0625 C-169.41453125 392.10246094 -170.1415625 392.14242188 -170.890625 392.18359375 C-183.26459078 392.56193443 -196.6477553 390.13993002 -206.5625 382.3125 C-216.53077712 372.70802861 -219.74382372 360.90734478 -220.21142578 347.42553711 C-220.73987533 303.92209894 -199.38394333 261.82586982 -181.6875 223.0625 C-181.15624512 221.89702637 -180.62499023 220.73155273 -180.07763672 219.53076172 C-173.29247533 204.68482054 -166.272484 189.982017 -158.88378906 175.42724609 C-157.47074099 172.63402495 -156.08040397 169.83000713 -154.69213867 167.02441406 C-153.04080413 163.69521407 -151.36737961 160.37737412 -149.6875 157.0625 C-149.05255615 155.80928955 -149.05255615 155.80928955 -148.40478516 154.53076172 C-141.16350823 140.30089958 -133.40352514 126.44881969 -125.25390625 112.72070312 C-123.90697237 110.43494625 -122.58541801 108.1384295 -121.28125 105.828125 C-115.81230094 96.19418557 -109.75741764 86.96984055 -103.625 77.75 C-102.98978424 76.79247833 -102.98978424 76.79247833 -102.34173584 75.81561279 C-40.09755645 -17.84157328 -40.09755645 -17.84157328 0 0 Z " fill="#f5a623" transform="translate(219.6875,1.9375)"/>
</svg>
